<?xml version="1.0" encoding="utf-8"?>
<!-- Generator: Adobe Illustrator 24.2.1, SVG Export Plug-In . SVG Version: 6.00 Build 0)  -->
<svg version="1.1" id="Layer_1" xmlns="http://www.w3.org/2000/svg" height="50" width="225" xmlns:xlink="http://www.w3.org/1999/xlink" x="0px" y="0px" viewBox="0 0 225 50" style="enable-background:new 0 0 225 50;" xml:space="preserve">
	<style type="text/css">
	.st0{clip-path:url(#SVGID_2_);}
	.st1{fill:#AAAAAA;}
	.st2{fill:#570000;}
	.st3{fill:#FF2C00;}
	.st4{fill:#FF5901;}
	.st5{fill:#FF5D00;}
	.st6{fill:#FF7E2A;}
	.st7{fill:#F30800;}
	.st8{fill:#FF8603;}
	.st9{clip-path:url(#SVGID_4_);}
	.st10{fill:#F22501;}
	.st11{fill:#FF9A18;}
	.st12{fill:#FF6B00;}
	.st13{fill:#FFAE3E;}
	.st14{clip-path:url(#SVGID_6_);}
	.st15{fill:#DA0000;}
	.st16{clip-path:url(#SVGID_8_);}
	.st17{fill:#FE3C25;}

	.btn:hover {
		opacity: 0.8;
	}
</style>
	<g id="_x31_">
		<a xlink:href="https://youtube.com/hitthemoney">
			<g class="btn" id="yt">
				<g>
					<g>
						<defs>
							<path id="SVGID_1_" d="M106.5,12.1c-0.6-2.3-2.4-4.1-4.7-4.7c-4.2-1.2-20.9-1.2-20.9-1.2s-16.7,0-20.8,1.1
							C57.8,7.9,56,9.7,55.4,12c-1.2,4.3-1.2,13-1.2,13s0,8.7,1.1,12.9c0.6,2.3,2.4,4.1,4.7,4.7c4.2,1.1,20.8,1.1,20.8,1.1
							s16.7,0,20.8-1.1c2.3-0.6,4.1-2.4,4.7-4.7c1.1-4.2,1.1-12.9,1.1-12.9S107.6,16.2,106.5,12.1z M75.4,33V17l13.9,7.9
							C89.4,24.9,75.4,33,75.4,33z" />
						</defs>
						<clipPath id="SVGID_2_">
							<use xlink:href="#SVGID_1_" style="overflow:visible;" />
						</clipPath>
						<g class="st0">
							<path class="st1" d="M-505.6,1197.3c0-2.3,0-4.6,0-6.8c0-583.9,0-1167.8,0.1-1751.7c0-1.5-1.2-3.5,1-4.6
							c0.6,2.3,0.3,4.7,0.3,7.1c0,582.4,0,1164.7,0,1747.1c0,7.9,0,7.9,8.1,7.9" />
							<path class="st2" d="M122.9-5.9c-8,0.2-16.2-0.2-24.2,0.5c-3.9,0.3-7.6,1.8-11.5,1.6c-1.2-0.1-2.4-0.3-3.6-0.3
							c-9.6,1.9-19.4,0.4-29,2.7c-0.6,0.2-1.3,0.2-1.9,0.1" />
							<path class="st3" d="M97.5,87.3c-0.9-0.7-1.9-1.2-2.9-1.6c-0.8-0.4-1.8-0.2-2.5-0.9l0,0c-4.8-3-9.9-5.4-15.3-7
							c-0.7-0.3-1.4-0.7-2.1-1c-3.4-1.7-7.1-2.5-10.4-4.2c-1.5-0.8-3.7-0.8-4-3.1c1.6-2.5,4.3-2.6,6.3-1.6
							c5.5,2.5,11.9,2.9,16.7,7.2c2.1,1.9,5.1,1.5,7.8,2c1.6,0.3,2.4-1,2.6-2.5c0.2-1.6,0.1-3.2-1-4.4C87.1,64,88.2,56.5,88.4,49
							c0.2-6.9-0.4-13.8-1.6-20.6c-5.8,2.8-7,2.6-11.3-1.8c-0.8-0.9-1.8-1.6-2.8-2.2c-6.3-3.6-6.8-4.9-5.5-12.4
							c0.8-4.6-2.6-8.2-2.8-12.6c-0.1-1.5-3.2-1.3-5.1-1.3c-2,0-4.2,0.4-5.2-2.1c1.4-0.9,2.9-0.7,4.4-0.8c8.4-0.3,17-0.7,25.6-1.1
							c0.3,0.4,0.5,0.9,0.6,1.4C83.3,1.2,86.6,5.6,89.1,10c1.3,2.3,4.1,2.2,6.5,1.7c3.1-0.7,6.1-0.5,8.8,1.3c2,1.3,4.3,0.9,6.5,0.9
							c3.9-0.1,7.9-0.3,11.4,1.7" />
							<path class="st3" d="M102.3,88.9" />
							<path class="st4" d="M125.7,19.8c-0.7-1.1-2.2-1.5-3.6-1.7c-0.8-0.1-2,0.1-2.4-0.3c-3.5-3.6-7.8-2.4-11.9-2
							c-1.2,0.1-2.4,0.6-3.4-0.2c-3-2.4-6.2-1.8-9.7-1.4c-5.1,0.7-7.7-0.9-9.4-5.8c-1.2-3.8-4.2-7.1-3-11.6c0.2-0.9,0.5-1.6,1.5-1.8
							c3.5,0.6,5.2,3.7,7.8,5.5c6,4,13.3,5.9,18.1,10.4c-1.9-0.6-3.6-2.6-5.6-4.4c-1.1-1-1.8-2.1-1.4-3.6c0.5-1.8,2-2.2,3.6-2.2
							c1.7,0,3.9,0.1,3.8-2.2c0-2.8-2.6-2-4.3-2.2c-2.6-0.4-5.5,0.7-7.6-1.8C98-6,98-6.4,98.3-6.8c9.9-1.4,20-1,29.9-2.1" />
							<path class="st5" d="M40.5,48c1.2-1.7,2.9-2.9,4.8-3.6c3.1-1.1,4.8-3.2,4.5-6.5c-0.4-4.9,1.7-9.3,2.5-13.9
							c0.7-4.4,5.5-5.4,8.4-1.6c6.1,8.2,13.5,15.7,16.3,26.1c0.6,2.1,0.7,2.1,3.4,4.7c0-2.6-0.3-4.9,0.2-7.2
							c0.4-1.6-0.3-3.4-1.8-3.9c-7.2-2.5-8-10.1-12.2-14.9c-1.2-1.4-1.7-3.3-3-4.7c-4.3-5-7.2-10.4-3.1-17.7
							c-6.7,1.5-10.4-3-14.9-5.4c-0.4-0.4-0.7-0.8-0.9-1.3c-0.1-0.6,0.2-1,0.6-1.3c2.7-0.5,5.4,0.5,8-0.6C53.5-4,53.7-4.1,53.9-4
							c3.7,0,7.5,0,11.2,0c3.9,0.1,4.5,0.7,2.7,4c-1.2,2.1-1.1,3.7,0.5,5.5c2.1,2.2,2.2,4.6,1.1,7.5c-1.9,5.1-1.1,6.6,4,8.9
							c1.9,0.9,3.5,2,4.5,4c0.9,1.8,2.1,2.4,4.1,1.9c1.9-0.5,3.5-1.1,3.8-3.4c0.1-1-0.2-2.1,1.4-3.2c1,6.4,3.5,12.1,3.1,18.7
							c-0.2,4.3,0.4,8.7,0.4,13.1c0,1,0.3,2.1,0,3c-1.4,4.6,0.5,8.4,3.3,11.7c2.5,3,2.2,6.3,1.9,9.6c-0.2,2.4-2.2,3.6-4.5,2.7
							c-4.1-1.7-8.7-1.5-12.5-5c-2.7-2.4-7.2-2.6-10.8-4.2c-2.6-1.1-5.1-1.7-7.9-1.5c-3.2,1.5-5.3-1-7.7-2.1
							c-5.9-3.8-12.4-6-18.9-8.5" />
							<path class="st6" d="M98.1-6c3.9,0,7.8-0.1,11.7,0.1c3.5,0.2,4.3,1.6,3.3,5c-1.6,5.1-1.6,5.1-8.9,3.8
							c2.5,6.1,9.5,6.1,14.3,10.7c-5.5,0.3-9.7-0.4-13.3-3C102.9,9,100.3,8.3,98,7C92.4,4.1,86.4,1.4,83.6-5c0.1-0.3,0.3-0.7,0.4-1
							c0.9-0.1,1.9-0.1,2.8-0.2C90.6-6.7,94.4-6.8,98.1-6z" />
							<path class="st3" d="M50.4-4.1c1,0,2,0.1,3,0.2c-2.6,1.5-5.6,0.7-8.4,1.1c-1,0.9-1.9,1.9-3.2,2.2" />
							<path class="st3" d="M98.2-6.8c0,0.3-0.1,0.5-0.1,0.8c-3.7,0.3-7.5,0.5-11.2-0.1" />
							<path class="st7" d="M105.4,88.9c0.2,0.7,0.4,1.5,0.6,2.2" />
							<path class="st7" d="M126.1,88.8" />
							<path class="st7" d="M126.7,92.5" />
							<path class="st7" d="M98.1,86.9" />
							<path class="st8" d="M33.3,23.3c1.8,1.8,4.9,1.7,6.6,0.4c1.8-1.4,2.3-3.5,0.7-6.4c-2.6-4.8-1.4-9.4,0.4-14
							c0.4-2.9,2.7-3.9,4.9-5c3.3-0.8,5.2,1.9,7.7,3.2c2.1,1,3.9,3.1,5.8-0.5c0.7-1.3,2.2-0.2,3.2,0.4c1,0.5,1.3,1.5,0.8,2.6
							c-0.6,1.6-1.3,3.1-2,4.7c-1.2,2.7-1.1,5.4,0.9,7.6c4.2,4.6,6.1,10.6,10.3,15.1c0.8,0.8,1.1,2.1,1.5,3.2
							c0.9,2.3,2.2,3.9,4.9,4.5c3.6,0.9,5.4,4.8,3.9,8.5c-0.6,1.7-0.8,2.7,0.5,4c1.4,1.3,1.7,3.1,0.3,4.5c-1.7,1.7-3.4,0.9-5-0.4
							c-1.8-1.6-3.4-3.4-4-5.8c-1.5-6-4.4-11.4-8.4-16.1c-2.7-3.2-5-6.8-7.5-10.2c-0.8-1.1-1.8-2.2-3.4-1.5
							c-1.3,0.6-1.2,1.9-1.3,3.1c-0.6,5.4-2.7,10.5-2.3,16c0.2,2.2-1.4,3.8-3.5,4.5c-3.3,1.1-6,2.6-7.3,6.3c-1.1,3-5.5,4.3-8.8,3.4" />
							<path class="st8" d="M42.1-2.8c1,0,1.9,0,2.9,0" />
						</g>
					</g>
				</g>
			</g>
		</a>
		<a xlink:href="https://twitch.tv/hitthemoney">
			<g class="btn" id="twitch">
				<g>
					<g>
						<defs>
							<path id="SVGID_3_" d="M2.9,3.2L0,10.8v30.7h10.4V47h5.9l5.5-5.5h8.5L41.7,30V3.2H2.9z M37.9,28l-6.5,6.5H20.9L15.4,40v-5.5
							H6.6V7.1h31.3C37.9,7.1,37.9,28,37.9,28z M31.3,14.6V26h-3.9V14.6H31.3z M20.9,14.6V26H17V14.6H20.9z" />
						</defs>
						<clipPath id="SVGID_4_">
							<use xlink:href="#SVGID_3_" style="overflow:visible;" />
						</clipPath>
						<g class="st9">
							<path class="st1" d="M-505.6,1197.3c0-2.3,0-4.6,0-6.8c0-583.9,0-1167.8,0.1-1751.7c0-1.5-1.2-3.5,1-4.6
							c0.6,2.3,0.3,4.7,0.3,7.1c0,582.4,0,1164.7,0,1747.1c0,7.9,0,7.9,8.1,7.9" />
							<path class="st10" d="M-31.9,34.8" />
							<path class="st10" d="M-10.7,38.5c3.1,2.4,6.9,3.1,10.3,4.8c1.7,0.8,3.6,1.3,2.7,3.9c-1.6,0.5-3-0.3-4.4-0.8" />
							<path class="st10" d="M-20.1,34" />
							<path class="st10" d="M-25.7,32" />
							<path class="st5" d="M45.6-0.8c-0.4-0.3-0.7-0.7-0.9-1.2c-0.1-0.6,0.2-1,0.6-1.3" />
							<path class="st5" d="M60.2,69.5c-3.2,1.5-5.3-1-7.7-2.1c-5.9-3.8-12.4-6-18.9-8.5c-10.1-4-20.3-7.8-30.5-11.6H2.7l-0.4-0.1
							c-2.9-2.9-6.9-3.6-10.5-5.1c-1.4-0.6-2.9-0.8-3.8-2.2c2.5-4.6,5.6,0,8.4-0.5c0.5,0,1,0.1,1.4,0.2c0.9,0.3,1.5,1.1,2.2,1.7
							C1,42,2.1,42,3.2,42c8.7,1.6,16.5,5.9,24.6,9.1c6.8,2.7,8.5,2.6,12.6-3.2c1.2-1.7,2.9-2.9,4.8-3.6c3.1-1.1,4.8-3.2,4.5-6.5" />
							<path class="st11" d="M-36.2-0.8c6.2-0.5,12.5,0.3,18.8-0.4c1.2-0.3,2.3-0.1,3.4-0.2c2.4-0.2,4.9,0.5,7.3-0.5
							c0.5,0,0.9,0,1.4-0.1c4.7-1.1,9.4-0.2,14.1-0.5C10.7-1,10.7,0,8.6,0.8C6.2,1.7,3.6,1.4,1,1.4c-4.3,0-8.4,0.7-12.3,2.6
							c-1.8,1.1-2,1.7-0.6,3.4c4.2,5.4,3.2,9.2-3.1,12.4c-0.3,0.2-0.6,0.2-0.9,0.4c-1.3,0.9-3.7,1.4-3,3.4c0.6,1.6,2.7,0.9,4.2,0.6
							c9.2-2,18.3-4.5,27-8.3c7.9-3.5,15.2-8.1,22.6-12.6c2-1.2,3.9-2.2,6.1-0.8c1,0.9,1.2,2,1.1,3.2c-0.6,4.4-0.4,8.6,1.3,12.9
							c1,2.5-0.2,5.1-2.4,6.7c-2.6,1.9-5.4,1.7-8.2,0.4c-1.5-0.7-2.6-2.1-4.1-3c-5.2-2.9-6.1-2.4-9.7,2.4c-3,4-7.6,6.8-12.1,8.8
							C4,35.2,3,36.2,3.5,39.2c0.3,1.6,0.5,3.4-1.2,4.6c-1-0.3-2.1-0.7-3.1-1c-0.9-0.3-1.4-1-1.9-1.8h-0.2c-0.4-0.3-1.1-0.4-1.3-0.8
							c-5.3-8.6-16-5.4-23.1-10.4c-2.7-1.9-7.5,0.1-11.3,0" />
							<path class="st10" d="M-14.1-1.8c0,0.2,0,0.4,0,0.6c-1,0.1-2,0.3-3,0.4c-0.3,0.1-0.7,0.4-1,0.4" />
							<path class="st12" d="M-31.3,32.5" />
							<path class="st12" d="M-37.5,28.6" />
							<path class="st12" d="M-17.1-0.8c-1.7,1.1-3.6,1-5.4,0.9" />
							<path class="st8" d="M48.5,45.8c-3.3,1.1-6,2.6-7.3,6.3c-1.1,3-5.5,4.3-8.8,3.4c-1.3-0.4-2.6-0.9-3.8-1.5
							c-5.9-2.8-12.3-4.4-18.1-7.6C8,45,4.8,45.5,2.3,43.9c-0.3-2-1.8-3.6-1-5.9c0.6-1.5-1-1.8-2.1-2.4c-0.8-0.4-1.5-0.9-1.2-1.9
							c0.3-0.9,1.1-1.3,1.9-1.5c0.6-0.2,1.4-0.4,2-0.2c4.2,1.5,6.7-1.1,9.1-3.8c0.3-0.4,0.6-0.8,0.8-1.3c1.2-2.2,5.1,0.9,5.2-2.5
							c0-2.4,1.6-3.6,2.6-5.2c1.2-2.1,2.6-2.2,4.6-1.1c3.1,1.7,6.5,2.6,9.2,5.2c1.8,1.8,4.9,1.7,6.6,0.4c1.8-1.4,2.3-3.5,0.7-6.4
							c-2.6-4.8-1.4-9.4,0.4-14c0.4-2.9,2.7-3.9,4.9-5" />
							<path class="st8" d="M52,41.2" />
							<path class="st13" d="M45.9-1.7c-0.6,2.7-1.7,4.8-4.9,5c-1.8-0.2-3.1,1-4.6,1.9c-9.1,5.6-18.2,11.3-28.5,15
							c-7.4,2.7-15,4.7-22.7,6.6c-0.1,0-0.3,0.1-0.5,0.1c-3.2,0.4-7.5,0.8-8.8-2c-1.2-2.8,3.4-3.8,5.3-5.8c1-1,2.7-1.3,4.1-2
							c4.4-2.4,4.5-5.4,0.5-8.4c-0.4-0.3-0.9-0.5-1.3-0.9c-1-1-2.6-1.9-2.1-3.7c0.5-1.6,2.1-1.4,3.3-1.9c6.7-3,13.8-3.1,20.9-3.1
							c1.4,0,2.7-0.2,3.9-0.9c10.6-0.3,21.1-0.6,31.7-1C43-2,44.3-2.9,45.1-1.9C45.3-1.9,45.6-1.8,45.9-1.7z" />
							<path class="st8" d="M45-1.9c-1,0-2-0.1-2.9-0.9c1,0,1.9,0,2.9,0C45-2.5,45-2.2,45-1.9z" />
						</g>
					</g>
				</g>
			</g>
		</a>
		<a xlink:href="https://reddit.com/u/hitthemoney">
			<g class="btn" id="reddit">
				<g>
					<g>
						<defs>
							<path id="SVGID_5_" d="M135.6,29.7c-1.3,0-2.4-1.1-2.4-2.4s1.1-2.4,2.4-2.4c1.3,0,2.4,1.1,2.4,2.4
							C138,28.7,136.9,29.7,135.6,29.7z M165.1,24.9c0,13.4-10.8,24.2-24.2,24.2s-24.2-10.8-24.2-24.2s10.8-24.2,24.2-24.2
							S165.1,11.6,165.1,24.9z M152.2,20.9c-0.9,0-1.7,0.4-2.3,1c-2.2-1.5-5.1-2.5-8.4-2.6l1.7-7.6l5.4,1.2c0,1.3,1.1,2.4,2.4,2.4
							c1.3,0,2.4-1.1,2.4-2.4s-1.1-2.4-2.4-2.4c-0.9,0-1.8,0.6-2.2,1.3l-6-1.3c-0.3-0.1-0.6,0.1-0.7,0.4l-1.9,8.4
							c-3.2,0.1-6.2,1.1-8.3,2.6c-0.6-0.6-1.4-1-2.4-1c-3.4,0-4.5,4.6-1.4,6.1c-0.1,0.5-0.2,1-0.2,1.5c0,5.1,5.8,9.3,12.9,9.3
							c7.1,0,12.9-4.2,12.9-9.3c0-0.5-0.1-1.1-0.2-1.5C156.7,25.4,155.6,20.9,152.2,20.9z M145.5,32.2c-1.8,1.8-7.4,1.7-9.1,0
							c-0.2-0.2-0.6-0.2-0.8,0s-0.2,0.6,0,0.8c2.2,2.2,8.5,2.2,10.8,0c0.2-0.2,0.2-0.6,0-0.8C146.1,32,145.7,32,145.5,32.2z
							 M146.2,24.9c-1.3,0-2.4,1.1-2.4,2.4s1.1,2.4,2.4,2.4c1.3,0,2.4-1.1,2.4-2.4C148.7,26,147.6,24.9,146.2,24.9z" />
						</defs>
						<clipPath id="SVGID_6_">
							<use xlink:href="#SVGID_5_" style="overflow:visible;" />
						</clipPath>
						<g class="st14">
							<path class="st1" d="M-505.6,1197.3c0-2.3,0-4.6,0-6.8c0-583.9,0-1167.8,0.1-1751.7c0-1.5-1.2-3.5,1-4.6
							c0.6,2.3,0.3,4.7,0.3,7.1c0,582.4,0,1164.7,0,1747.1c0,7.9,0,7.9,8.1,7.9" />
							<path class="st15" d="M194,84.8" />
							<path class="st3" d="M189.9,77c-7.4,2.3-14.7,4.9-21.7,8.2c-7.5,3.5-15.9,4.1-23.5,7c-4,1.5-8.3,1.8-12.5,0.8
							c-2.5-3-0.5-4.3,2.1-4.8c2.3-0.5,2.6-1,1-2.6c-2.3-5.1,2.4-6.7,4.8-9.3c1.6-1.8,4.8-2,4.8-5.3c0.7-2.5,2.7-3.7,4.8-5
							c1.4-0.8,2.5-2,1.8-3.7c-0.7-1.9-2.3-2.3-4.2-1.9c-10.1,2.1-19.4-0.6-28.2-5.1c-3.2-1.6-6.6-2.5-10-3.5
							c-3.7-1.1-8.7,3.1-7.6,6.5c1.7,5.4,0.6,11,2.1,16.5c1.2,4.4,2.8,7.5,7.1,8.9c1.5,0.5,2.9,1,3.2,2.8c-1.5,4.6-5.1,3.9-8.6,3.4
							c-0.9-0.2-1.7-0.5-2.5-0.8h-0.5c-0.9-1.2-2.3-1-3.6-1.1c-0.4-0.1-0.8-0.3-1.2-0.5c-0.9-0.7-1.9-1.2-2.9-1.6
							c-0.8-0.4-1.8-0.2-2.5-0.9l0,0c-4.8-3-9.9-5.4-15.3-7c-0.7-0.3-1.4-0.7-2.1-1c-3.4-1.7-7.1-2.5-10.4-4.2
							c-1.5-0.8-3.7-0.8-4-3.1c1.6-2.5,4.3-2.6,6.3-1.6c5.5,2.5,11.9,2.9,16.7,7.2c2.1,1.9,5.1,1.5,7.8,2c1.6,0.3,2.4-1,2.6-2.5
							c0.2-1.6,0.1-3.2-1-4.4c-5.6-6.2-4.5-13.7-4.3-21.2c0.2-6.9-0.4-13.8-1.6-20.6c-5.8,2.8-7,2.6-11.3-1.8
							c-0.8-0.9-1.8-1.6-2.8-2.2c-6.3-3.6-6.8-4.9-5.5-12.4C68,7.6,64.6,4,64.4-0.4c-0.1-1.5-3.2-1.3-5.1-1.3c-2,0-4.2,0.4-5.2-2.1
							c1.4-0.9,2.9-0.7,4.4-0.8c8.4-0.5,17-0.9,25.6-1.3c0.3,0.4,0.5,0.9,0.6,1.4C83.3,1.2,86.6,5.6,89.1,10
							c1.3,2.3,4.1,2.2,6.5,1.7c3.1-0.7,6.1-0.5,8.8,1.3c2,1.3,4.3,0.9,6.5,0.9c3.9-0.1,7.9-0.3,11.4,1.7c7.5,4.3,15.8,3.8,23.9,4.7
							c0.5,0.1,1.1-0.1,1.5,0.1c10.9,4.7,21.2,0.4,31.6-1.9c2.1-0.5,4.3-1.1,5.9,0.3" />
							<path class="st4" d="M189.3,25.7c-0.4-0.7-1.2-1.2-1.7-1.8c-2.4-3.1-5-4.3-9.2-2.6c-4.5,1.7-9.7,1.3-14,4
							c-1.7,1.1-4,0.5-6-0.1c-7.7-2.3-15.8-2-23.5-4c-0.6-0.2-1.5-0.3-2,0c-2.9,2-5.2,1.5-7.2-1.4c-0.7-1.1-2.2-1.5-3.6-1.7
							c-0.8-0.1-2,0.1-2.4-0.3c-3.5-3.6-7.8-2.4-11.9-2c-1.2,0.1-2.4,0.6-3.4-0.2c-3-2.4-6.2-1.8-9.7-1.4c-5.1,0.7-7.7-0.9-9.4-5.8
							c-1.2-3.8-4.2-7.1-3-11.6c0.2-0.9,0.5-1.6,1.5-1.8c3.5,0.6,5.2,3.7,7.8,5.5c6,4,13.3,5.9,18.1,10.4c-1.9-0.6-3.6-2.6-5.6-4.4
							c-1.1-1-1.8-2.1-1.4-3.6c0.5-1.8,2-2.2,3.6-2.2c1.7,0,3.9,0.1,3.8-2.2c0-2.8-2.6-2-4.3-2.2c-2.6-0.4-5.5,0.7-7.6-1.8
							C98-6,98-6.4,98.3-6.8c9.9-1.4,20-1,29.9-2.1c14.5-1.6,29-2.8,43.5-4.6" />
						</g>
					</g>
				</g>
			</g>
		</a>
		<a xlink:href="https://github.com/hitthemoney">
			<g class="btn" id="github">
				<defs>
					<path id="SVGID_7_" d="M192.3,39.7c0,0.2-0.2,0.4-0.5,0.4s-0.6-0.1-0.6-0.4c0-0.2,0.2-0.4,0.5-0.4S192.3,39.5,192.3,39.7z
				 M189.2,39.2c-0.1,0.2,0.1,0.4,0.4,0.5c0.3,0.1,0.6,0,0.6-0.2c0.1-0.2-0.1-0.4-0.4-0.5C189.5,38.9,189.3,39,189.2,39.2
				L189.2,39.2z M193.6,39.1c-0.3,0.1-0.5,0.3-0.5,0.5s0.3,0.3,0.6,0.3c0.3-0.1,0.5-0.3,0.5-0.5C194.1,39.2,193.9,39,193.6,39.1z
				 M200.1,1.1c-13.8,0-24.3,10.4-24.3,24.2c0,11,6.9,20.4,16.8,23.7c1.3,0.2,1.7-0.6,1.7-1.2c0-0.6,0-4,0-6.1c0,0-6.9,1.5-8.4-3
				c0,0-1.1-2.9-2.8-3.6c0,0-2.3-1.6,0.2-1.5c0,0,2.5,0.2,3.8,2.6c2.2,3.8,5.8,2.7,7.2,2.1c0.2-1.6,0.9-2.7,1.6-3.3
				c-5.5-0.6-11.1-1.4-11.1-11c0-2.7,0.8-4.1,2.3-5.8c-0.3-0.6-1.1-3.3,0.3-6.7c2.1-0.6,6.8,2.7,6.8,2.7c2-0.6,4.1-0.8,6.2-0.8
				s4.2,0.3,6.2,0.8c0,0,4.8-3.3,6.8-2.7c1.4,3.4,0.5,6.1,0.3,6.7c1.6,1.8,2.6,3.1,2.6,5.8c0,9.6-5.8,10.3-11.4,11
				c0.9,0.8,1.7,2.3,1.7,4.6c0,3.3,0,7.5,0,8.3c0,0.6,0.5,1.4,1.7,1.2c9.9-3.3,16.6-12.7,16.6-23.7C225,11.5,213.8,1.1,200.1,1.1z
				 M185.5,35.3c-0.1,0.1-0.1,0.3,0.1,0.5c0.2,0.2,0.4,0.2,0.5,0.1c0.1-0.1,0.1-0.3-0.1-0.5C185.8,35.2,185.6,35.1,185.5,35.3z
				 M184.4,34.5c-0.1,0.1,0,0.3,0.2,0.4c0.2,0.1,0.4,0.1,0.4-0.1c0.1-0.1,0-0.3-0.2-0.4C184.6,34.3,184.5,34.4,184.4,34.5z
				 M187.6,38c-0.2,0.1-0.1,0.4,0.1,0.6c0.2,0.2,0.5,0.3,0.6,0.1c0.1-0.1,0.1-0.4-0.1-0.6S187.7,37.8,187.6,38z M186.5,36.5
				c-0.2,0.1-0.2,0.4,0,0.6c0.2,0.2,0.4,0.3,0.6,0.2c0.2-0.1,0.2-0.4,0-0.6C186.9,36.5,186.6,36.4,186.5,36.5L186.5,36.5z" />
				</defs>
				<clipPath id="SVGID_8_">
					<use xlink:href="#SVGID_7_" style="overflow:visible;" />
				</clipPath>
				<g class="st16">
					<path class="st1" d="M-430.9,1190.8c0-2.3,0-4.6,0-6.8c0-583.9,0-1167.8,0.1-1751.7c0-1.5-1.2-3.5,1-4.6c0.6,2.3,0.3,4.7,0.3,7.1
				c0,582.4,0,1164.7,0,1747.1c0,7.9,0,7.9,8.1,7.9" />
					<path class="st15" d="M262.6,60.2" />
					<path class="st15" d="M268.6,78.3" />
					<path class="st3" d="M264.5,70.4c-7.4,2.3-14.7,4.9-21.7,8.2c-7.5,3.5-15.9,4.1-23.5,7c-4,1.5-8.3,1.8-12.5,0.8
				c-2.5-3-0.5-4.3,2.1-4.8c2.3-0.5,2.6-1,1-2.6c-2.3-5.1,2.4-6.7,4.8-9.3c1.6-1.8,4.8-2,4.8-5.3c0.7-2.5,2.7-3.7,4.8-5
				c1.4-0.8,2.5-2,1.8-3.7c-0.7-1.9-2.3-2.3-4.2-1.9c-10.1,2.1-19.4-0.6-28.2-5.1c-3.2-1.6-6.6-2.5-10-3.5c-3.7-1.1-8.7,3.1-7.6,6.5
				c1.7,5.4,0.6,11,2.1,16.5c1.2,4.4,2.8,7.5,7.1,8.9c1.5,0.5,2.9,1,3.2,2.8c-1.5,4.6-5.1,3.9-8.6,3.4c-0.9-0.2-1.7-0.5-2.5-0.8
				h-0.5c-0.9-1.2-2.3-1-3.6-1.1c-0.4-0.1-0.8-0.3-1.2-0.5c-0.9-0.7-1.9-1.2-2.9-1.6c-0.8-0.4-1.8-0.2-2.5-0.9l0,0
				c-4.8-3-9.9-5.4-15.3-7c-0.7-0.3-1.4-0.7-2.1-1c-3.4-1.7-7.1-2.5-10.4-4.2c-1.5-0.8-3.7-0.8-4-3.1c1.6-2.5,4.3-2.6,6.3-1.6
				c5.5,2.5,11.9,2.9,16.7,7.2c2.1,1.9,5.1,1.5,7.8,2c1.6,0.3,2.4-1,2.6-2.5c0.2-1.6,0.1-3.2-1-4.4c-5.6-6.2-4.5-13.7-4.3-21.2
				c0.2-6.9-0.4-13.8-1.6-20.6c-5.8,2.8-7,2.6-11.3-1.8c-0.8-0.9-1.8-1.6-2.8-2.2c-6.3-3.6-6.8-4.9-5.5-12.4
				C142.6,1,139.2-2.6,139-7c-0.1-1.5-3.2-1.3-5.1-1.3c-2,0-4.2,0.4-5.2-2.1c1.4-0.9,2.9-0.7,4.4-0.8c8.6-0.4,17.2-0.8,25.7-1.1
				c0.3,0.4,0.5,0.9,0.6,1.4c-1.4,5.7,1.9,10.1,4.4,14.5c1.3,2.3,4.1,2.2,6.5,1.7c3.1-0.7,6.1-0.5,8.8,1.3c2,1.3,4.3,0.9,6.5,0.9
				c3.9-0.1,7.9-0.3,11.4,1.7c7.5,4.3,15.8,3.8,23.9,4.7c0.5,0.1,1.1-0.1,1.5,0.1" />
					<path class="st3" d="M237.4,61.1c-1.7,3-3.7,5.6-7.1,7c-1.8,0.7-3.2,2.2-2.4,4.4c0.9,2.3,2.6,2.6,5,2.2c4.9-1,9.5-2,13.3-5.7
				c5.8-5.6,13.9-5.7,21.1-7.5" />
					<path class="st4" d="M239,18.7c-1.7,1.1-4,0.5-6-0.1c-7.7-2.3-15.8-2-23.5-4c-0.6-0.2-1.5-0.3-2,0c-2.9,2-5.2,1.5-7.2-1.4
				c-0.7-1.1-2.2-1.5-3.6-1.7c-0.8-0.1-2,0.1-2.4-0.3c-3.5-3.6-7.8-2.4-11.9-2C181.2,9.3,180,9.8,179,9c-3-2.4-6.2-1.8-9.7-1.4
				c-5.1,0.7-7.7-0.9-9.4-5.8c-1.2-3.8-4.2-7.1-3-11.6c0.2-0.9,0.5-1.6,1.5-1.8c3.5,0.6,5.2,3.7,7.8,5.5c6,4,13.3,5.9,18.1,10.4
				c-1.9-0.6-3.6-2.6-5.6-4.4c-1.1-1-1.8-2.1-1.4-3.6c0.5-1.8,2-2.2,3.6-2.2c1.7,0,3.9,0.1,3.8-2.2c0-2.8-2.6-2-4.3-2.2
				c-2.6-0.4-5.5,0.7-7.6-1.8c-0.2-0.5-0.2-0.9,0.1-1.3c9.9-1.4,20-1,29.9-2.1" />
					<path class="st6" d="M172.8-12.5c3.9,0,7.8-0.1,11.7,0.1c3.5,0.2,4.3,1.6,3.3,5c-1.6,5.1-1.6,5.1-8.9,3.8
				c2.5,6.1,9.5,6.1,14.3,10.7c-5.5,0.3-9.7-0.4-13.3-3c-2.3-1.6-4.9-2.3-7.2-3.6c-5.6-2.9-11.6-5.6-14.4-12c0.1-0.3,0.3-0.7,0.4-1
				c0.9-0.1,1.9-0.1,2.8-0.2C165.3-13.2,169-13.4,172.8-12.5z" />
					<path class="st3" d="M172.8-12.5c-3.7,0.3-7.5,0.5-11.2-0.1c3.7-1.4,7.5-0.7,11.3-0.7C172.8-13.1,172.8-12.8,172.8-12.5z" />
					<path class="st17" d="M248.6,78.4c-8.2,3-16.6,4.8-24.9,6.9c-7.7,2-15.6,3-23.5,4c-3.6,0.5-7.4,0.7-10.8-1.7
				c-0.7-0.5-2-0.2-3-0.3c-1.9-1-3.9-1.9-5.8-2.9c-0.2-0.7-1.5-1.2-0.6-2.2c2.9-0.3,5.7-1.2,8-3.1c0.2-2.8,2.5-3.3,4.5-4.2
				c7.3-3.4,14.7-6.7,21.9-10.3c2.1-1,4.2-1.3,6.2,0.3c1.8,0.4,3.5,1.4,0.8,2.6c-3.9,1.7-6.3,4.9-9.4,7.5c-1,0.8-1.4,1.9-1.5,3.1
				c-0.4,2.3-2.4,2.6-4,3.4c-2.3,1.1-1.9,2.4-0.1,3.7C213,85.7,219,84,225.3,82c4.6-1.5,9.2-2.6,13.8-4.2c5.3-1.8,10.1-4.6,15.3-6.4
				" />
					<path class="st7" d="M180.1,82.3c0.2,0.7,0.4,1.5,0.6,2.2c-1.4-0.2-2.3-1.2-3.2-2.1C178.3,82.4,179.2,82.4,180.1,82.3z" />
					<path class="st7" d="M262.2,57.5" />
					<path class="st7" d="M220.6,65c-6.1,2.7-12.2,5.3-18.2,8.1c-4.7,2.3-9.4,4.4-14.3,6.1c-7.1,0.4-10.4-3.6-12.4-10.2
				c-1.7-5.7,0.9-11.8-2.5-17.2c-0.9-1.5,0-3.3,1.2-4.6c1-1.1,2.3-2,3.2-3.3c1.4-2.1,3.1-2.2,5.3-1.6c5,1.5,10,2.9,14.6,5.6
				c3.2,1.9,6.7,3.2,10.6,3c1.6-0.1,3.3,0.5,5,1c2.7,0.8,5.1,0.8,7.9-0.4c3.5-1.6,5.6-0.6,7.3,2.3c2.3,4,1.8,5.3-2.3,7.6
				C224.1,62.3,221.8,63,220.6,65z" />
					<path class="st7" d="M206.4,85.3c-1.7,0.2-3.3,0.6-5,0.7c-1,0-1.9-0.7-2.3-1.7c-0.5-1.4,0.6-1.8,1.6-2.1c3.4-0.9,6-3.9,9.8-3.9
				c1.3,0.1,2.7-0.1,4,0.2c2,0.5,2.4,2.4,0.7,3.8" />
				</g>
			</g>
		</a>
	</g>
</svg>
