<?xml version="1.0" encoding="utf-8"?>
<!--
	Made by hitthemoney with
	Generator: Adobe Illustrator 24.2.1, SVG Export Plug-In . SVG Version: 6.00 Build 0)
	and some modifications
-->
<svg version="1.1" xmlns="http://www.w3.org/2000/svg" xmlns:xlink="http://www.w3.org/1999/xlink" x="0px" y="0px"
	 viewBox="0 0 200 50" style="enable-background:new 0 0 200 50;" xml:space="preserve">
<style type="text/css">
	.st0{clip-path:url(#Layer_1_1_);}
	.st1{fill:#AAAAAA;}
	.st2{fill:#4F0000;}
	.st3{fill:#3B0000;}
	.st4{fill:#FF5701;}
	.st5{fill:#B70000;}
	.st6{fill:#F12900;}
	.st7{fill:#FC4D46;}
	.st8{fill:#F30800;}
	.st9{fill:#FF2800;}
	.st10{fill:#FF8C08;}
	.st11{fill:#FF6400;}
	.st12{fill:#FF832F;}
	.st13{fill:#FF7311;}
	.st14{fill:#FFAD3C;}
	.st15{fill:#FF9413;}
</style>
<g id="title">
</g>
<g id="Layer_2">
	<g>
		<defs>
			<path id="Layer_1" d="M7.3,9.2h5.1v10.7c0.7-0.8,1.4-1.4,2.1-1.7c0.7-0.3,1.5-0.4,2.5-0.4c1.8,0,3.2,0.5,4.1,1.5
				c0.9,1,1.4,2.4,1.4,4.1v9.1h-5.1v-7.3c0-0.7-0.1-1.3-0.2-1.8c-0.1-0.4-0.3-0.8-0.6-1c-0.4-0.4-1-0.6-1.6-0.6
				c-0.9,0-1.5,0.3-2,0.8c-0.5,0.5-0.7,1.2-0.7,2.2v7.7H7.3V9.2z M25.5,12.6c0-0.4,0.1-0.8,0.2-1.1c0.1-0.3,0.4-0.6,0.6-0.9
				c0.3-0.3,0.6-0.5,0.9-0.6c0.3-0.1,0.7-0.2,1.1-0.2s0.8,0.1,1.1,0.2c0.3,0.2,0.6,0.4,0.9,0.6c0.3,0.3,0.5,0.6,0.6,0.9
				c0.1,0.3,0.2,0.7,0.2,1.1s-0.1,0.8-0.2,1.1c-0.1,0.3-0.4,0.6-0.6,0.9c-0.3,0.3-0.6,0.5-0.9,0.6c-0.3,0.1-0.7,0.2-1.1,0.2
				s-0.8-0.1-1.1-0.2c-0.3-0.1-0.6-0.4-0.9-0.6c-0.3-0.3-0.5-0.6-0.6-0.9C25.6,13.3,25.5,13,25.5,12.6z M30.9,18.1v14.4h-5.1V18.1
				H30.9z M40.1,22.3v10.1H35V22.3h-1.7v-4.2H35v-4.3h5.1v4.3H43v4.2H40.1z M51.3,22.3v10.1h-5.1V22.3h-1.7v-4.2h1.7v-4.3h5.1v4.3
				h2.9v4.2H51.3z M56.7,9.2h5.1v10.7c0.7-0.8,1.4-1.4,2.1-1.7c0.7-0.3,1.5-0.4,2.5-0.4c1.8,0,3.2,0.5,4.1,1.5
				c0.9,1,1.4,2.4,1.4,4.1v9.1h-5.1v-7.3c0-0.7-0.1-1.3-0.2-1.8c-0.1-0.4-0.3-0.8-0.6-1c-0.4-0.4-1-0.6-1.6-0.6
				c-0.9,0-1.5,0.3-2,0.8c-0.5,0.5-0.7,1.2-0.7,2.2v7.7h-5.1V9.2z M79.9,26.1c0,2.2,1,3.3,3.1,3.3c1.1,0,1.9-0.4,2.5-1.3h4.9
				c-1,3.3-3.5,4.9-7.4,4.9c-1.2,0-2.3-0.2-3.3-0.5c-1-0.4-1.9-0.9-2.6-1.6c-0.7-0.7-1.3-1.5-1.7-2.4c-0.4-0.9-0.6-2-0.6-3.1
				c0-1.2,0.2-2.3,0.6-3.2c0.4-1,0.9-1.8,1.6-2.5c0.7-0.7,1.5-1.2,2.5-1.6c1-0.4,2.1-0.5,3.3-0.5c1.2,0,2.3,0.2,3.3,0.5
				c1,0.4,1.8,0.9,2.5,1.6c0.7,0.7,1.2,1.5,1.5,2.5s0.5,2.1,0.5,3.4v0.5H79.9z M85.9,23.2c-0.2-0.7-0.5-1.3-1-1.7
				c-0.5-0.4-1.2-0.6-1.9-0.6c-0.8,0-1.4,0.2-1.9,0.6c-0.5,0.4-0.8,1-0.9,1.7H85.9z M93.5,18.1h5.1v1.8c1.4-1.3,2.9-2,4.7-2
				c2.1,0,3.8,0.9,4.9,2.7c1.1-1.8,2.8-2.7,4.9-2.7c0.7,0,1.3,0.1,1.9,0.3s1.1,0.5,1.5,0.9c0.4,0.4,0.8,1,1,1.6
				c0.3,0.7,0.4,1.5,0.4,2.4v9.3h-5.1v-7.1c0-0.7-0.1-1.3-0.2-1.8c-0.1-0.5-0.3-0.8-0.4-1.1c-0.2-0.3-0.4-0.4-0.7-0.5
				c-0.3-0.1-0.5-0.1-0.8-0.1c-1.6,0-2.4,1.2-2.4,3.6v7.1h-5.1v-7.1c0-0.7,0-1.3-0.1-1.8c-0.1-0.5-0.2-0.9-0.4-1.1s-0.4-0.5-0.7-0.6
				c-0.3-0.1-0.6-0.2-1-0.2c-0.3,0-0.6,0-0.9,0.1s-0.5,0.3-0.7,0.5c-0.2,0.3-0.4,0.6-0.5,1.1s-0.2,1.1-0.2,1.9v7.1h-5.1V18.1z
				 M120.7,25.2c0-1.1,0.2-2.1,0.6-3c0.4-0.9,1-1.7,1.8-2.4c0.8-0.7,1.7-1.2,2.7-1.6c1.1-0.4,2.2-0.6,3.5-0.6c1.2,0,2.4,0.2,3.4,0.6
				c1.1,0.4,2,0.9,2.7,1.6c0.8,0.7,1.4,1.5,1.8,2.4c0.4,0.9,0.6,2,0.6,3.1c0,1.1-0.2,2.2-0.7,3.1c-0.4,0.9-1,1.8-1.8,2.4
				c-0.8,0.7-1.7,1.2-2.8,1.6c-1.1,0.4-2.2,0.6-3.5,0.6c-1.2,0-2.4-0.2-3.4-0.6c-1-0.4-1.9-0.9-2.7-1.6s-1.4-1.5-1.8-2.5
				S120.7,26.3,120.7,25.2z M126.1,25.2c0,0.5,0.1,0.9,0.3,1.3c0.2,0.4,0.4,0.8,0.7,1.1c0.3,0.3,0.6,0.5,1,0.7
				c0.4,0.2,0.8,0.3,1.3,0.3c0.4,0,0.9-0.1,1.3-0.3c0.4-0.2,0.7-0.4,1-0.7c0.3-0.3,0.5-0.6,0.7-1.1c0.2-0.4,0.3-0.8,0.3-1.3
				c0-0.4-0.1-0.9-0.3-1.3c-0.2-0.4-0.4-0.8-0.7-1.1c-0.3-0.3-0.6-0.5-1-0.7c-0.4-0.2-0.8-0.3-1.3-0.3c-0.4,0-0.9,0.1-1.3,0.3
				c-0.4,0.2-0.7,0.4-1,0.7c-0.3,0.3-0.5,0.6-0.7,1S126.1,24.8,126.1,25.2z M140.9,18.1h5.1v1.8c0.7-0.8,1.4-1.4,2.1-1.7
				c0.7-0.3,1.5-0.4,2.5-0.4c1,0,1.9,0.2,2.6,0.5s1.3,0.8,1.8,1.4c0.4,0.5,0.7,1,0.8,1.6c0.1,0.6,0.2,1.3,0.2,2v9.1H151v-7.3
				c0-0.7-0.1-1.3-0.2-1.7c-0.1-0.4-0.3-0.8-0.5-1.1c-0.2-0.2-0.5-0.4-0.8-0.5c-0.3-0.1-0.6-0.1-0.9-0.1c-0.9,0-1.5,0.3-2,0.8
				s-0.7,1.2-0.7,2.2v7.7h-5.1V18.1z M164.1,26.1c0,2.2,1,3.3,3.1,3.3c1.1,0,1.9-0.4,2.5-1.3h4.9c-1,3.3-3.5,4.9-7.4,4.9
				c-1.2,0-2.3-0.2-3.3-0.5c-1-0.4-1.9-0.9-2.6-1.6s-1.3-1.5-1.7-2.4c-0.4-0.9-0.6-2-0.6-3.1c0-1.2,0.2-2.3,0.6-3.2s0.9-1.8,1.6-2.5
				s1.5-1.2,2.5-1.6c1-0.4,2.1-0.5,3.3-0.5c1.2,0,2.3,0.2,3.3,0.5c1,0.4,1.8,0.9,2.5,1.6c0.7,0.7,1.2,1.5,1.5,2.5
				c0.4,1,0.5,2.1,0.5,3.4v0.5H164.1z M170.1,23.2c-0.2-0.7-0.5-1.3-1-1.7c-0.5-0.4-1.2-0.6-1.9-0.6c-0.8,0-1.4,0.2-1.9,0.6
				s-0.8,1-0.9,1.7H170.1z M182.1,30.5l-7-12.4h5.9l3.8,7.4l3.7-7.4h5.8l-11.6,21.6h-5.7L182.1,30.5z"/>
		</defs>
		<clipPath id="Layer_1_1_">
			<use xlink:href="#Layer_1"  style="overflow:visible;"/>
		</clipPath>
		<g id="Layer_2_1_" class="st0">
			<g>
				<g>
					<path class="st1" d="M1547.3-439.2c-618.8,0-1237.5,0-1856.3,0c-6.5,0-6.5,0-6.5,6.3c0,461.6,0,923.3,0,1384.9
						c0,1.9,0.2,3.8-0.2,5.6c-0.2-0.2-0.8,0.4-0.8-0.4c0-1.1,0-2.2,0-3.2c0-464.7,0-929.3,0-1394c620.1,0,1240.1,0,1860.2,0
						C1544.9-440,1546.4-440.9,1547.3-439.2z"/>
					<path class="st2" d="M213.3,0.6c-6-0.4-12,0.2-18,1.1c-8.2,1.3-16.5,1.5-24.8,2.1c-0.4,0.1-0.9,0.2-1.4,0.3
						c-1.6,0.1-3.2,0.1-4.8,0.1c-3.3,0.1-6.7-0.4-10,0.6C153.2,5,152.1,5,151,5.1c-1.1,0-2.1,0.5-3.2,0.6c-1.6,0.1-3.2,0-4.8,0.1
						c-5.2,0.2-10.4-0.6-15.5,0.7c-0.5,0.1-0.9,0.1-1.4,0.1C120.4,6.9,114.7,6,109,7.3c-1.4,0.2-2.8,0.2-4.1,0.1c-2-0.6-4-0.3-6,0
						c-4.8-0.4-9.7,1-14.4-0.8c-0.4-2.5,1.6-1.8,2.7-1.9c3.3-0.5,6.8,0.8,10.1-0.8c4.6-0.2,9.1,0.5,13.7-0.5c0.4-0.1,0.8-0.1,1.2,0
						c5.8,2,11.8,0.6,17.6,0.3c6.8-0.3,13.6-0.3,20.4-1.2c6.2-0.9,12.4-1.9,18.7-2.5c0.8-0.1,1.7-0.2,2.4,0c4,1,8.1,1,12,0.5
						c6.6-0.9,13.4-0.6,19.9-2.7c2.2-0.7,4.8-0.3,7.2-0.4"/>
					<path class="st3" d="M97.5,3.7c-0.4,1.4-1.6,1.6-2.9,1.6c-2.1,0-4.2,0-6.3,0c-1.3,0-2.7-0.1-3.8,0.9c-0.7,2.2-2.7,1.9-4.4,1.9
						C76.2,8.2,72.3,8,68.5,8.8c-14,0.4-28.2-0.2-42.3,0.3C5.1,9.8-16,9.3-37,12.6c-4.9,0.7-9.9,0.8-14.9,1.1
						c-1.5,0.1-3-0.2-4.6,0.8c0.6,1.9,2.4,2.4,3.9,2.9c8.4,2.7,16.4,6.7,24.8,9.3c0.8,0.2,1.6,0.4,2.1,1c0.3,0.4,0.3,0.9,0,1.3
						c-1.1,0-2.2-0.2-3.1,0.7c-2.1,0.1-3.8-1.3-5.7-2c-6.6-2.6-13.5-4.4-20-7.4c-2.5-1.2-4.8-2.8-7.6-3.6c-1.3-0.4-3.1-1-2.8-2.9
						c0.3-1.6,2-1.6,3.2-1.9c4.4-1,8.8-1,13.2-1.5c3.7-0.4,7.5-0.5,11.3-0.7c6.5-0.2,12.8-1.4,19.2-2c3.9-0.4,7.8,0.4,11.6,0.2
						C-3.9,7.6-1.8,7.6,0.3,7C2,6.5,3.7,6.4,5.5,6.7C7.7,7.1,10,7,12.3,6.9c7-0.3,13.9-0.8,20.9-0.5c7.6,0.3,15.3-0.9,22.9-0.7
						C64.4,6,72.4,4.6,80.5,3.9C86.1,3.4,91.8,3.8,97.5,3.7z"/>
					<path class="st3" d="M-11,32.2c-2.7-0.5-5.8,0.8-8.1-1.6c0.1-0.4,0.4-0.7,0.7-1c2.8-0.8,5.3-0.4,7.5,1.4
						C-10.6,31.4-10.7,31.8-11,32.2z"/>
					<path class="st3" d="M-1.3,33.8c-1.9-0.1-3.8-0.2-5.7-0.2c-1.5,0-3-0.2-4-1.5c0.1-0.1,0.2-0.2,0.2-0.3c3.4-0.5,6.9-1.5,9.7,1.7
						L-1.3,33.8z"/>
					<path class="st3" d="M-19.1,30.6c-2.3,0.1-4.9,1.2-6.4-1.7l0.2-0.3c2.7-1.7,4.9-1.1,6.5,1.6C-18.9,30.3-19,30.5-19.1,30.6z"/>
					<path class="st4" d="M207.5,30.7c-6.4-1.7-13-3.8-19.8-2.1c-1.2,0.3-2.6,0-3.4-0.8c-2.3-2.4-5.4-2.9-8.2-4.2
						c-1-0.5-2-0.8-3.1-0.5c-3.1,0.8-5.9,1-9-0.7c-1.9-1-4,0-5.6,1.3c-1.5,1.3-0.9,3-0.2,4.5c1.2,2.7,0.3,5.3,0.2,7.9
						c-0.1,6.4,0.7,12.9,0.2,19.3c-0.1,1.2,0.4,2.1,0.9,3c1.8,3.2,2.5,6.8,3.8,10.2c0.6,1.8,1.1,3.4-0.3,4.9
						c-1.6,1.7-3.5,1.9-5.5,0.9c-0.3-0.1-0.7-0.2-1-0.4c-0.7-0.2-1.3-0.5-2-0.7c-0.3-0.1-0.7-0.2-1-0.4c-0.9-0.3-1.8-0.5-2.6-0.8
						c-6.5-3.5-13.3-6.3-20.2-8.7c-5.3-2-10.5-3.8-15.7-5.9c-8.2-3.2-16.4-6.6-24.7-9.5C89,47.7,88,47,87,46.4
						c-1.8-1.3-5-0.3-5.6-3.5c0.6-0.7,1.5-0.8,2.3-0.8c2.3,0,4.4,1,6.6,1.7c1.3,2,3.1,2.6,5.4,2.2c0.4,0,0.8,0,1.1,0.1
						c1.4,0.4,2.3,1.8,3.9,1.9c0.6,0.1,1.1,0.3,1.6,0.6c3.9,2.2,8.1,3.5,12.6,4.1c2.5,0.3,4.9,1.3,7.2,2.6c3.1,1.8,6.4,3.4,10.8,2.7
						c-2-3-2.5-6.1-0.7-9.1c1.2-2.1,2.9-3.6,5.5-3.5c2.5,0.2,4.3,1.8,4.6,3.9c0.7,5.5,5.3,7.7,8.7,11.3c1.6-1.7,1.1-3.5,0.7-5
						c-0.6-3.1-0.7-6.2-0.5-9.2c0.5-6.5-1.8-11.4-7.7-14.6c-4.4-2.4-6.8-6.7-9.7-10.5c-1-1.3-0.5-2.6,0-3.8c0.7-1.9,0.9-3.9,0.6-5.9
						c0.1-0.6,0.2-1.2,0.3-1.8c0.5-1.8,1.2-3.5,2.7-4.7c1-0.2,2-0.1,3-0.1c0.5,0.2,1.1,0.6,1.1,1.1c-0.1,4.6,2.5,9,1.1,13.8
						c-0.8,2.8,1.8,6.3,4.6,6.7c0.4,0.1,0.8,0,1.1-0.2c1.2-0.9,2.8-7,2.2-8.5c-1-2.5-2-5-2.7-7.6c-0.6-2-0.7-4,1.4-5.3
						c0.3-0.2,0.7-0.3,1.1-0.3c6.9,4.6,14.1,8.7,20.9,12.4c-1.3-0.2-2.5-1.5-3.6-2.7c-2.2-2.4-1.8-3.8,1.5-4.5
						c1.3-0.3,2.5-0.6,2.6-2c0.2-1.8-1.4-1.5-2.5-1.8c-1.5-0.4-3.8,0.1-3.4-2.7c1.3-0.5,2.8,0.3,4-0.5l-0.1-0.1
						c11-0.3,21.9-1,32.7-2.9"/>
					<path class="st5" d="M201.4,0.7c-10.6,1.7-21.2,2.6-32,2.1c1.7-1,3.7-0.7,5.5-0.8c10.2-0.2,20.2-1.8,30.3-2.9"/>
					<path class="st6" d="M68.3,7.7c3.1-0.9,6.3-0.5,9.5-0.7c2.3-0.1,4.5,0,6.7-0.7C89.7,6.5,94.8,6.1,99.9,6c1.6-0.4,3.3-0.4,4.9,0
						c1.3,0,2.6,0,3.9,0c1.2-0.2,2.4-0.6,3.5,0.3c0.1,0.5-0.1,1-0.5,1.4c-1.7,1.4-3.8,1.1-5.8,1.1c-7.6-0.2-15.2,0.6-22.8,1.1
						C78.5,9,73.8,9.2,69.2,8.7C68.9,8.4,68.5,8.1,68.3,7.7z"/>
					<path class="st5" d="M112.1,6.3c-1.1-0.1-2.2-0.2-3.4-0.3c2.8-1,5.8-0.8,8.7-0.7c3.1,0,6.1,0.1,9.2,0.2
						c0.2,0.5,0.1,0.9-0.3,1.3c-2.8,1.3-5.8,0.3-8.6,0.6C115.8,7.2,113.7,7.8,112.1,6.3z"/>
					<path class="st5" d="M140.3,5.5c-1.1,0-2.1,0-3.2,0c-1.1,1.2-2.5,1.7-4.1,1.8c-2-0.2-4-0.4-5.6-2c2-1,4.2-0.7,6.3-0.7
						c3.3-0.1,6.7,0,10,0c0.2,0.5,0.1,0.9-0.3,1.2C142.3,6.5,141.2,6.2,140.3,5.5z"/>
					<path class="st5" d="M154,3.6c3.5-1,7-0.5,10.6-0.6c0.2,0.4,0.2,0.9-0.1,1.2c-0.5,0.5-1.2,0.7-1.9,0.7c-1.8,0-3.7,0-5.5,0
						C155.9,4.9,154.7,4.9,154,3.6z"/>
					<path class="st6" d="M154,3.6c1.1,0.1,2.2,0.2,3.3,0.3c0.1,0.8-0.4,1.3-1,1.7c-1.8,0.9-3.6,0.8-5.3-0.5
						c-0.4-0.4-0.4-0.8-0.2-1.3C151.9,3.8,153,3.7,154,3.6z"/>
					<path class="st6" d="M143.4,5.3c0.1-0.2,0.1-0.4,0.2-0.7c1.6-0.1,3.1-0.1,4.7-0.2c0.6-0.3,1.2-0.3,1.7,0c0.2,0.4,0.2,0.7-0.1,1
						c-0.3,0-0.5,0-0.8-0.1C147.3,6.5,145.3,7.7,143.4,5.3z"/>
					<path class="st6" d="M127.4,5.3c1.9,0,3.8,0.1,5.7,0.1c-2.1,3-3.4,3.1-6.5,0.6c0-0.2,0.1-0.4,0.1-0.6
						C126.9,5.4,127.1,5.4,127.4,5.3z"/>
					<path class="st5" d="M104.8,6c-1.6,0-3.3,0-4.9,0C101.5,5.1,103.2,5.2,104.8,6z"/>
					<path class="st6" d="M164.6,3.6c0-0.2,0-0.4,0.1-0.6c1.6,0,3.2,0,4.9,0c-1.2,0.9-2.7,0.6-4.1,0.9C165,4,164.8,3.9,164.6,3.6z"
						/>
					<path class="st5" d="M150.1,4.7c-0.6-0.1-1.2-0.2-1.8-0.3c0.8-0.6,1.6-0.7,2.5-0.5c0,0.2,0,0.4,0,0.5
						C150.7,4.7,150.5,4.8,150.1,4.7z"/>
					<path class="st6" d="M81.4,43.4c1.7,1.3,4,1.5,5.6,3.1c-1.6,0.3-3-0.4-4.3-0.9c-7.9-3.5-16-6.2-24-9.3
						c-5.3-2-10.8-1.9-16.3-0.7c-5.1,1-10.1,0.8-15.2,0.2c-4.9-0.6-9.9-1.2-14.8-1.4C8,34.3,3.5,33.9-0.9,33.6
						c-3.1-1.3-6.5-0.6-9.7-1.7c-2.6-1.2-5.4-1-8.1-1.6c-2.1-0.9-4.2-1.5-6.5-1.6c-8.2-2.7-16.3-5.3-24.5-8.1
						c-4.1-1.4-7.7-3.7-11.5-5.7c-0.3-0.2-0.6-0.6-0.7-0.9c-0.1-0.6,0.4-1,0.9-1.1c2.1-0.4,4.2-0.9,6.4-1c12.5-0.4,24.9-2,37.4-2.6
						c27.7-1.4,55.4-1.9,83.1-1.8c0.8,0,1.6,0.1,2.4,0.1c0.1,0.1,0.2,0.2,0.2,0.4c-1,2.6-3.4,2.3-5.4,2.3c-7.3,0.2-14.6,0-22,0.1
						C34,9.6,26.8,9.1,19.6,10.8c-0.9,0.4-1.9,0.5-2.9,0.6c-4.5-0.6-9-1.5-13.5,0.4C2.3,12.2,1,12.1,0,11.9
						c-9.6-1.6-19.2-0.1-28.8,0.4c-4.8,0.3-7.7,4.9-5.9,9.3c0.5,1.2,1.5,1.6,2.5,1.8c5.5,1.1,10.5,4.2,16.2,4.4
						c11.4,0.4,22.5,3.8,34,3.2c3.2-0.2,6.5,0,9.6,0.9c5.7,1.5,11.7,1.1,17.2,0.2c7.1-1.2,13.3,1,19.7,2.9c5,1.5,9.7,4,14.5,6.2
						C80.1,41.7,81,42.2,81.4,43.4z"/>
					<path class="st7" d="M174.8,75.1"/>
					<path class="st8" d="M130.6,63.5c5.5,0.6,10.3,3.5,15.4,5.4c2,0.7,3.8,1.8,5.7,2.8c0.7,0.7,1.8,0.1,2.5,0.7l0,0
						c0.6,0.8,1.8,0.1,2.4,0.8l0,0c1,1.1,3.2,0.8,3.4,2.9c-0.1,0.2-0.2,0.3-0.3,0.5c-3.3-0.8-6.4-2.1-9.3-3.7
						c-5.6-3.1-11.6-5.5-17.5-8C132.1,64.5,131.2,64.3,130.6,63.5z"/>
					<path class="st8" d="M159.7,76.6l0.1-0.2"/>
					<path class="st9" d="M212.5,64.5"/>
					<path class="st9" d="M159.8,76.4c-0.8-1.3-2.7-1.6-3.3-3.1c0.7,0.1,1.4,0.1,2,0.3c1.5,0.4,2.7,0.1,3.7-1c1.2-1.4,0-2.4-0.5-3.6
						c-1.4-3.9-3.2-7.6-4.6-11.5c-1-2.5-0.3-5.7,0-8.6c0.1-1.6,0-3.2-0.1-4.8c-0.3-3.7-0.7-7.4,0.4-11.1c0.3-1,0.3-1.8-0.1-2.7
						c-0.2-0.4-0.4-0.7-0.5-1.1c-1.4-3.4-1.3-5.9,0.3-7.1c2.4-1.8,6.9-2.4,9.1-0.8c1.5,1.1,2.6,1.4,4.3,0.6c2.5-1.1,5-1,7.6,0.5
						c2.5,1.4,5.6,1.7,7.4,4.5c0.6,0.9,1.6,0.9,2.5,0.2c1.4-1,2.9-1,4.6-0.9c5.1,0.3,9.9,1.9,15,2.3c0.3,0,0.6,0.1,0.8,0.2"/>
					<path class="st10" d="M16.6,9.4c0.8,0,1.6,0,2.4,0c7.3-0.9,14.6,0.1,21.9-0.8c7.2,0,14.4,0,21.7-0.1c2,0,4,0.2,6-0.6
						c4.8,0,9.6-0.1,14.4-0.1c0.1,1.9-1.4,2.3-2.7,2.3c-3.2,0-5.9,1.7-9.1,1.8c-0.9,0-2.6,0-2,2.1c2.5,8.3,2,9.6-4.7,13.8
						C69,29.2,73.7,29,78,27.7c5.1-1.4,10.5-2.1,15.2-5.1c4.5-2.9,10.8-2.6,14.5-6.4s8.5-5.9,12.3-9.5c2.7-0.5,5.1,0.1,6.9,2.1
						c1.3,1.4,2.5,1.7,4.2,0.6c1.6-1,3.3-1.2,4.5,0.8c0,0.5,0,1,0,1.6c-0.9,1.8-1.1,3.9-1.9,5.7c-1.2,2.9,1.5,4.3,2.4,6.4
						c0.4,1,1.4,1.6,2,2.5c1.3,2,1.5,4.2-0.6,5.7c-1.9,1.4-3.6,0.2-4.9-1.3c-1.6-2-3.3-3.9-5-5.8c-0.6-0.6-1.2-1.1-2.1-0.7
						s-0.9,1.2-0.7,2.1c0.6,3,0,6.1,0.8,9.2c0.9,3.4-0.4,6.1-3.4,7.9c-2.7,1.6-5,3.5-6.1,6.6c-1,2.6-3.1,3.3-6,2.5
						c-2.8-0.8-5.4-2.2-8.3-2.8c-0.5,0-1.1-0.1-1.6-0.1c-0.9-1-1.9-1.9-3.3-2.3c-0.3,0-0.5,0-0.8,0c-1.7-1.2-4.2-0.7-5.7-2.3
						c-2.3,0.1-4.5-0.5-6.5-1.7c-7.9-2.5-15.2-6.4-23-9c-4.1-1.3-8.5-2.5-13-1.6c-2,0.4-3.9-0.3-5.9-0.9c-6.3-2.1-12.6-4.4-19.1-6.1
						c-0.8-0.2-1.7-0.5-2.4-0.4c-6.3,1.4-9-2.6-11.3-7.3c-0.7-1.5-1.9-2.6-2.7-4c-1.6-2.6-0.8-4,2.2-4.2C11.3,9.6,14,10.3,16.6,9.4z
						"/>
					<path class="st11" d="M101.6,49.8c1.1-0.6,2.1-0.1,3.1,0.3c1,0.4,2,0.9,3,1.2c5,1.4,5.6,1.2,7.4-3.8c1-2.8,3.3-3.8,5.4-5.1
						c3.9-2.4,3.9-2.5,3.2-7.1c-0.4-2.2-1.6-4.4-0.2-6.7c0.3-0.5-0.2-1-0.5-1.5c-1-2.2-0.6-4.1,1.2-5.1c1.4-0.8,3.1-0.4,4.5,1.5
						c1.8,2.4,4.1,4.3,5.6,6.9c0.4,0.7,0.9,1.4,1.9,1.1c0.9-0.3,1-1.2,1.2-1.9c0.4-1.1-0.1-2.1-0.7-3c-0.8-1.3-1.6-2.5-2.4-3.7
						c-2.9-4.2-2.6-7,1.1-11.1c0.6,1.5,0.3,3.1-0.3,4.3c-1.8,3.5,0.2,5.9,2.2,8.3c2.2,2.5,4.5,5,7.6,6.4c3.1,1.5,4.8,4.1,6.5,7.2
						c1.9,3.4,1.3,6.4,1.2,9.6c-0.2,4.2,0.6,8.3,1,12.4c0.1,1.1,0.4,2.1-0.8,2.8c-1.1,0.7-2.1,0.3-3-0.3c-1-0.5-1.7-1.3-2.2-2.3
						c-0.7-1.2-1.7-2.1-3-2.7c-2.2-1-3.2-2.7-3.5-5c-0.1-1.2-0.4-2.4-0.9-3.5c-1.3-3-3.9-3.3-6-0.8c-2.5,2.9-2.3,5.9,0.8,8.5
						c0.6,0.5,1.3,1.1,1,2c-0.3,1.1-1.2,1.4-2.2,1.4c-4.4,0.3-8.6-0.7-12.3-3.1c-2-1.3-4.1-2-6.3-2.6
						C110.5,53.4,105.7,52.7,101.6,49.8z"/>
					<path class="st11" d="M16.6,9.4c-1.4,1.1-3.1,0.7-4.7,0.8c-1.3,0.1-2.7,0-4,0.2c-1.2,0.2-1.6,1.1-0.7,2
						c2.8,2.8,4.7,6.2,6.3,9.8c0.6,1.3,1.6,1.8,2.9,1.5c5-1.1,9.5,0.5,14,2.3c2.2,0.9,4.4,1.8,6.9,2.1c2.2,0.3,4.4,0.7,6.2,2.4
						c1.5,1.4,3.7,1.6,5.7,1.4c3.7-0.4,7.2,0.8,10.8,1c2.4,0.1,4.4,1.8,6.6,2.7c5,2.1,9.8,5,15.3,5.6c1.1,0.1,1.4,1.1,1.7,2
						c-0.8,0-1.6,0-2.4,0.1c-5.3-2.2-10.6-4.4-16-6.5c-4.4-1.7-8.9-3.2-13.5-3.8c-3-0.3-6.1,0.3-9.2,0.8c-5.4,0.8-10.7,0.9-16-0.2
						c-2.9-0.6-5.8-0.9-8.8-0.8C8.8,33.2-0.1,31.4-9,30.1c-5-0.8-10.2-0.9-15-2.8c-3.4-1.4-7-1.7-10.3-3.1c-2-0.9-2.6-2.1-2.3-4.1
						c0.2-1.2,0.4-2.4,0.6-3.6c0.8-3.5,2.1-4.9,5.7-5.3c3.6-0.3,7.2-1,10.8-1c3.7,0,7.5,0.2,11.2-0.7c0.4-0.1,0.8-0.1,1.2-0.1
						C0.8,10.7,8.7,8.9,16.6,9.4z"/>
					<path class="st9" d="M143.4,5.3c1.9,0,3.9,0.1,5.8,0.1c-0.8,1.5-0.8,3-0.1,4.6c1.2,2.7,2.1,5.5,3.3,8.2c0.8,1.8,1,3.2-0.7,4.7
						c-1.6,1.3-1.6,3.3-1.9,5.2c-0.3,2.1-1.4,2.5-3,1.2c-1.6-1.4-3.3-2.7-5.2-3.7s-2.4-2.3-1.6-4.3c0.6-1.6,1.2-3.3,1.1-5.1
						c0-0.5,0.1-1.2-0.2-1.6c-2.4-2.9-1-6-0.7-9C141.3,5.4,142.4,5.3,143.4,5.3z"/>
					<path class="st12" d="M150.1,4.7c0.2-0.1,0.5-0.1,0.7-0.2c1.9,0,3.7,0.1,5.6,0.1c2.2,0.3,4.4-0.4,6.6-0.7
						c0.5-0.1,1-0.1,1.5-0.2c0.3,0.1,0.6,0.1,0.8,0.2c1.6,1,3.4,0.6,5.1,0.6c3,0,4,1.5,2.9,4.4c-1.2,3.1-1.2,3.1-6.4,2.9
						c2.5,3.5,6.4,4.7,10.5,6.6c-2.6,1.3-4.4,1.4-6.3,0.5c-5.4-2.7-11-5-15.9-8.4c-2-1.4-3.8-2.9-5.3-4.9
						C150.1,5.2,150.1,4.9,150.1,4.7z"/>
					<path class="st11" d="M135.5,10.3c-1.4-0.1-2.7-0.5-4,0.9c-2.1,2.1-3.3,1.9-5.3-0.4c-1.7-1.9-3.2-4.1-6.2-3.6
						c-0.7,0.3-1.4,0.6-2.2,0.1c-0.2-0.2-0.3-0.4-0.3-0.7c0-0.2,0.1-0.4,0.1-0.4c3-0.1,5.9-0.1,8.9-0.2c2.2,0,4.5,0.7,6.5-0.6
						c1.3,0,2.7,0,4,0.1C137.2,7.3,136.9,9,135.5,10.3z"/>
					<path class="st13" d="M213.5,9c0.1-0.3,0.1-0.6,0.3-0.7"/>
					<path class="st11" d="M90.2,45c2.3-0.1,4.3,0.4,5.7,2.3C93.8,47.1,91.1,48.3,90.2,45z"/>
					<path class="st11" d="M96.7,47.4c1.7,0,2.9,0.5,3.3,2.3C98.4,49.6,97.7,48.3,96.7,47.4z"/>
					<path class="st9" d="M156.5,73.2c-0.9,0-1.8-0.1-2.4-0.8C155,72.4,155.9,72.5,156.5,73.2z"/>
					<path class="st9" d="M154.1,72.4c-0.9,0-1.8-0.1-2.5-0.7C152.6,71.6,153.4,71.7,154.1,72.4z"/>
					<path class="st14" d="M117.7,6.9c0.8,0.1,1.5,0.2,2.3,0.3c0.1,2.3-0.5,3.9-3.1,4.2c-2.3,0.3-3.3,2.6-5.5,3.2
						c-0.7,0.2-0.8,1-0.8,1.7c0,0.5,0,1.3-0.5,1.4c-2.2,0.3-3.7,2.8-5.5,2.8c-4.4-0.1-7.8,2.3-11.1,4.2c-4.2,2.4-8.9,2.6-13.2,4.3
						c-4.4,1.8-9.1,1.8-13.8,1.1c-1.2-0.2-2.4,0.2-3.6,0.1c-1.1-0.1-2-0.8-2.2-2s0.8-1.6,1.7-2c0.5-0.2,1-0.4,1.5-0.5
						c4.2-1.3,5.4-3,5.2-7.3c0-1.5,0.1-2.9-2.3-2.9c-1.7,0-1.8-1.5-1-2.6c1.3-1.8,3-3.1,5.4-2.8c1.4,0.2,2.6,0,3.8-0.7
						c1.6-1,3.4-0.5,5.1-0.7c1-0.1,1.9-0.1,2.7-0.7c9.7-0.8,19.4-0.8,29.1-0.9C113.9,6.3,115.8,6.4,117.7,6.9z"/>
					<path class="st10" d="M117.7,6.9c-1.9,0-3.8,0-5.7,0.1c0-0.2,0.1-0.4,0.1-0.7c1.8,0,3.7,0,5.5,0C117.7,6.4,117.7,6.7,117.7,6.9
						z"/>
					<path class="st4" d="M163,3.8c-2.1,0.8-4.2,2.3-6.6,0.7c0.3-0.2,0.6-0.4,0.8-0.6C159.2,3.9,161.1,3.8,163,3.8z"/>
					<path class="st11" d="M40.9,8.6c-0.6,0.8-1.3,1.3-2.4,1.2c-5.3-0.6-10.7-0.8-16,0.3c-1.2,0.2-2.4,0.2-3.4-0.7
						c1.1-0.5,2.3-0.7,3.5-0.7C28.7,8.7,34.8,8.6,40.9,8.6z"/>
					<path class="st15" d="M-3.8,10.5c-0.3,1.6-0.6,3.1-0.9,4.5c-0.1,0.6-0.2,1.5-0.6,1.8c-3.3,2.3-4.4,6-6.1,9.3
						c-0.7,1.5-1.9,2.1-3.2,1.7c-3.5-1.1-7.4-0.9-10.6-3.2c-1.4-1-2.9-1.9-4.7-2.1c-1-0.1-2.7,0.9-2.7-0.6c-0.1-2-1.6-4.1,0.2-6.1
						c2.3-2.5,5.2-4.2,8.4-4.4c6.4-0.4,12.8-0.6,19.2-1.2C-4.7,10.2-4.4,10.4-3.8,10.5z"/>
				</g>
			</g>
		</g>
	</g>
</g>
</svg>