<?xml version="1.0" encoding="utf-8"?>
<!-- Generator: Adobe Illustrator 24.3.0, SVG Export Plug-In . SVG Version: 6.00 Build 0)  -->
<svg version="1.1" id="Layer_2" xmlns="http://www.w3.org/2000/svg" xmlns:xlink="http://www.w3.org/1999/xlink" x="0px" y="0px"
	 viewBox="0 0 1080 1080" style="enable-background:new 0 0 1080 1080;" xml:space="preserve">
<style type="text/css">
	.st0{fill:url(#SVGID_1_);}
	.st1{fill:#010101;}
	.st2{fill:#FA131F;}
</style>
<g id="Layer_3">
	<linearGradient id="SVGID_1_" gradientUnits="userSpaceOnUse" x1="449.7281" y1="1049.5847" x2="629.4657" y2="30.2423">
		<stop  offset="0" style="stop-color:#DBCC5C"/>
		<stop  offset="0.9929" style="stop-color:#F9F4A5"/>
	</linearGradient>
	<polygon class="st0" points="376.6,837.7 82.6,816.5 208.1,540 82.6,263.5 375.6,242.2 540.2,14.5 703.1,242.1 997.4,263.5 
		871.4,540 996.8,815.2 703.4,837.9 540,1065.5 	"/>
	<polygon class="st1" points="130.7,292.1 392.8,273 540,69.3 685.8,272.9 949.2,292.1 836.3,540 948.7,786.8 686.1,807.1 
		540,1010.6 393.9,806.9 130.7,787.9 243.2,540 	"/>
</g>
<g>
	<path class="st2" d="M967.9,749.3c-0.6-0.3-1.2-0.6-1.8-0.9c0.2-0.3,0.4-0.6,0.5-1c0.4,0.6,0.7,1.3,1.1,1.9
		C967.8,749.3,967.9,749.3,967.9,749.3z"/>
	<path class="st2" d="M969.6,752.6c-2.4-0.2-2-1.8-1.7-3.3c0,0-0.1,0.1-0.1,0.1c0.6,1.1,1.1,2.3,1.7,3.4
		C969.5,752.7,969.6,752.6,969.6,752.6z"/>
	<path class="st2" d="M429.5,470.1c1.9,7.2-0.5,12.9-0.5,18.6c0,34.9,2.5,69.6,6.5,104.2c0.7,6.1,2.8,11.5,9.2,13.7
		c31.5,10.8,56.3,31.7,79.3,54.4c17.1,16.9,34,17.2,54.6,8.6c53.4-22.1,81.6-64.1,95.8-117.8c2.1-8.1,4.7-16.1,9.2-23.2
		c1.8-2.9,4.1-5.7,7.9-5.3c4.2,0.3,5,4.3,5.8,7.3c2.4,8.7,2.3,17.7,1.9,26.6c-1.7,32.9-5.6,65.4-14.1,97.4
		c-2.3,8.6-6.8,14.9-14.6,19.4c-14.5,8.2-30.3,14.9-42.7,25.6c-15.5,13.3-34,18.5-51.8,25.7c-11.6,4.7-23.8,1.5-35.6,0.4
		c-40.9-3.7-76.3-21.5-109.3-44.6c-16.3-11.4-31-24.4-43.1-40.4c-13.5-17.8-12.6-38.5-13-59.2c-0.7-40.4,18.9-71.8,44.4-100.6
		C422.4,477.4,425.5,474.3,429.5,470.1z"/>
	<path class="st2" d="M358.8,578.5c-25.6-23.6-40.8-50.1-38.6-84.5c0.6-9.5,5.2-17.5,11.5-24.5c5.1-5.6,10-11.3,15.5-16.4
		c16.8-15.5,28.4-34,34.7-56.1c2.8-9.9,6.9-19.4,11.4-28.7c5.7-11.6,14.6-18.6,27.3-21c17.3-3.3,34.8-3.7,52.4-4.8
		c23.3-1.5,46.6-3.4,69.2-10.1c11-3.3,21.3-0.1,29.9,6.5c14.2,10.9,26.1,24.2,36.7,38.6c0.9,1.3,2.7,2.5,1.7,4.3
		c-1,1.9-3,1.1-4.5,0.9c-7.5-0.9-14.9-1.8-22.3-3.1c-34.3-6.2-65.6,2.1-95.3,19.2c-46.3,26.6-83.4,62-108.2,109.6
		c-9.2,17.7-15.1,36.5-18.4,56.1C361.2,568.8,360.1,573,358.8,578.5z"/>
	<path class="st2" d="M490.4,788.4c-8.3,0.5-16.3-0.9-23.4-5c-30.2-17.4-62.6-28.7-96.6-35.7c-17.6-3.6-31-13.5-38.2-30.6
		c-4.2-10.1-5.9-20.8-7.3-31.6c-1.6-12.7-3.3-25.4-4.9-38.1c-3.8-29.4-21.2-49.6-44.8-65.2c-4.4-2.9-4.2-4-0.7-6.9
		c26.4-21.6,61.6-14.6,76.7,15.9c5.3,10.7,9.2,22.1,14.2,32.9c13,28.6,35.6,48.7,60,67.2c35,26.5,73.7,43.2,117.9,46.2
		c5.2,0.3,12.8-0.4,14.4,4.3c1.7,4.7-5,8.6-8.6,12.3c-8.6,8.7-17.8,16.8-27.7,24.1C512.2,785.1,502.1,789.1,490.4,788.4z"/>
	<path class="st2" d="M590.4,335.4c23.4,1,46-4.2,68.9-6.3c21.4-1.9,35.3,8.7,45.2,26.6c11.3,20.5,17.5,42.7,22.1,65.4
		c5.6,28,12.9,55.4,30.5,78.8c2.2,3,2.2,6.3,2,9.6c-1.3,25.6-2.1,51.1-12,75.5c-4.5,11-7,22.9-10,34.5c-4.4,17-14.7,29-29.7,37.4
		c-2.6,1.5-5.7,4.4-8.3,2.4c-2.7-2-0.7-5.7,0.3-8.5c9.4-27.9,12.5-57,16-86.1c3.1-26.3-0.7-50-14.2-73.6
		c-22.8-40-45-80.1-74.5-115.8c-9.8-11.9-20.8-22.5-31.8-33.2C593.2,340.4,590.8,339.1,590.4,335.4z"/>
	<path class="st2" d="M637.9,577.1c-0.1,3.5-1.6,7.6,3.8,9.8c3.1,1.3,1.3,4.8,0.1,7.3c-2.5,5.1-6.2,9.3-10.3,13.1
		c-16.8,16-34.9,30.3-54.4,43c-10.7,6.9-21.5,8.1-33.3,2.9c-20.4-9-37.4-23.1-55.5-35.5c-3.4-2.4-6.6-5.3-10.4-7
		c-21.4-10.2-26-29.7-28.6-50.5c-0.3-2.1-0.9-4.9,1.5-6.1c2.3-1.1,4.2,1.1,5.9,2.3c19.2,13.1,40.2,22.9,61.4,32.1
		c18.4,8,37.8,9.6,57.4,7.7c15.3-1.5,25.8-12,28.9-27.2c3.3-16,2.5-32.2,0.6-48.3c-1.2-10.3-6.3-15.6-16.3-17.3
		c-14.5-2.4-28.4,0-41,7.7c-15.9,9.8-16.2,25.4-14.8,41.4c0.7,8.2,3.9,15.6,8.5,22.4c1.5,2.2,4,5.1,2.1,7.6
		c-2.1,2.7-5.6,1.1-8.6,0.3c-14.5-3.7-24.3-12.3-27.3-27.3c-3.3-16.3-7.8-32.6-3.5-49.5c1.9-7.4,5.9-13.1,12.8-16.7
		c13.1-6.8,26.1-14.6,40.4-17.9c25.4-5.8,49.8-2.2,71.5,13.6c7.3,5.3,10.1,13.3,10.6,21.9c0.4,8.1,0.1,16.2,0.1,24.2"/>
	<path class="st2" d="M651.7,556.7c-0.7-10.2,1.3-18,2-25.9c0.9-9.4,1.3-18.9,0.8-28.4c-0.8-19.4-11.7-31.5-28.4-39.4
		c-11.2-5.3-23.1-8.1-35.5-8.4c-8.1-0.2-16.2,0.3-24.2-0.3c-36.3-2.8-75.6,26-77.3,73c-0.1,2.5-0.3,5-0.6,7.5
		c-1.3,14-1.9,14.4-15.5,11.1c-20.2-5-32.6-20.4-32-41.2c0.6-20.5,5.2-40.2,13.3-59.1c2.6-6.1,6.6-10.8,12.3-14.2
		c12.3-7.3,25-13.4,39-16.7c7.1-1.7,14.1-4,20-8.1c15-10.6,31.8-12.5,49.4-12c17.3,0.5,34.4,2.3,51.3,6.4
		c6.3,1.5,11.1,4.8,14.5,10.3c12.1,19.3,24.4,38.6,36.6,57.9c1.2,1.9,2.5,3.7,2.3,6.1c-1.8,23.9-2,48.1-17.6,68.4
		C659.1,547.5,656,551.3,651.7,556.7z"/>
	<path class="st2" d="M558.2,793c-2.5-23.7,9.3-44.2,28.1-52.9c18-8.3,33.9-20.2,50.2-31.4c13.1-9,26.5-17.4,40.1-25.5
		c6.1-3.6,13-4.9,19.5-7.2c33.2-11.8,51.2-37.8,64.1-68.5c2.5-5.9,5.1-11.7,7.4-17.7c1.9-4.6,4.2-4.5,7.1-1.1
		c10.3,12.1,18.8,24.3,18.5,41.9c-0.5,31.2-11.7,56.4-36.4,75.2c-14.6,11.1-32.1,16.6-49.5,21.5c-17.7,5-33.2,12.5-43,29
		c-4.9,8.1-10.9,15.5-17.9,21.9c-10.5,9.6-22.8,13.3-36.3,8.1C592.2,779.4,574.8,775.9,558.2,793z"/>
	<path class="st2" d="M369.2,347.2c24-0.3,20,0.6,12.5,15.5c-7.4,14.7-15,29.2-22.6,43.9c-7.1,13.8-15.8,26.3-27.6,36.4
		c-17.6,15.1-25.8,34.4-26.7,57.3c-0.5,13.1-3.7,25.9-6.8,38.6c-1.4,5.7-4.3,8-10.3,4.5c-13.2-7.7-24.6-17.3-33.3-29.9
		c-3.7-5.3-4.8-10.9-3.5-17.4c3.2-16.1,9-30.7,20.4-43.2c10.1-11.1,18.9-23.4,28.1-35.3c11.3-14.5,17.2-30.6,13-49.2
		c-1.2-5.2,0.6-7.3,5.1-9.5C334.6,350.4,353.2,348.8,369.2,347.2z"/>
	<path class="st2" d="M768.1,549.1c0.1-10.3,1.3-20.6,3-30.8c2.8-16.6,1.1-33-8.7-46.6c-17.5-24.3-24.3-52.3-30.8-80.6
		c-2.1-9-4.2-17.9-6.5-26.8c-1.4-5.5,0.5-7.5,5.9-6.1c21.5,5.4,42.2,12.7,59.9,26.6c2.3,1.8,5.7,3.5,3.6,7.4
		c-13.2,24.7-3.6,47,6.9,69.3c5.9,12.6,12.5,24.9,17.9,37.8c5.5,13.2,5.5,27.1,3.1,41.1c-0.6,3.8-3.1,6.5-5.8,9
		c-11.6,10.5-25.1,17.4-40,21.8c-5.9,1.7-8.5-0.1-8.5-6.1C768,559.7,768.1,554.4,768.1,549.1z"/>
	<path class="st2" d="M448.3,328.9c-10.6,0-21.2,0.2-31.7-0.1c-4.5-0.1-8.8-1.3-10.6-6.6c-1.7-5,0.6-8.6,3.8-12
		c9-9.5,20.4-15.4,31.8-21.2c17.6-8.9,35.6-17.1,53.4-25.7c2.9-1.4,5.8-2.3,8.7-0.6c27,14.8,56.9,22.4,85.1,34.1
		c8,3.3,15.7,7.1,22.8,12.1c2.2,1.5,5.8,2.9,5.1,6c-0.8,3.1-4.5,2.4-7.2,2.5c-4.7,0.2-9.5,0.6-14.2,0.4
		c-34.1-1.3-67.6,4.6-101.2,9.2C478.9,329,463.6,329.7,448.3,328.9z"/>
	<path class="st2" d="M544.1,544.8c-0.1-18.8,19.1-32.4,36.7-25.9c3.1,1.1,4.9,3.5,6,6.5c5,13.5,5.6,27.2,0.4,40.7
		c-4.1,10.6-9.5,12.8-20.1,9C548.9,568.5,544.2,562.2,544.1,544.8z"/>
</g>
</svg>
